<?xml version="1.0" standalone="no"?>
<!DOCTYPE svg PUBLIC "-//W3C//DTD SVG 20010904//EN"
 "http://www.w3.org/TR/2001/REC-SVG-20010904/DTD/svg10.dtd">
<svg version="1.0" xmlns="http://www.w3.org/2000/svg"
 width="16.000000pt" height="16.000000pt" viewBox="0 0 16.000000 16.000000"
 preserveAspectRatio="xMidYMid meet">
<metadata>
Created by potrace 1.11, written by Peter Selinger 2001-2013
</metadata>
<g transform="translate(0.000000,16.000000) scale(0.002286,-0.002286)"
fill="#000000" stroke="none">
<path d="M3298 6995 c-2 -1 -41 -5 -88 -9 -100 -7 -225 -22 -295 -36 -27 -5
-61 -12 -75 -14 -596 -109 -1206 -409 -1660 -817 -126 -114 -178 -166 -331
-335 -107 -118 -286 -370 -386 -545 -158 -274 -309 -656 -369 -932 -20 -90
-53 -272 -59 -322 -4 -33 -9 -69 -11 -80 -18 -95 -25 -522 -12 -690 8 -104 25
-233 42 -320 2 -11 6 -36 10 -55 49 -272 156 -595 283 -857 365 -755 979
-1348 1747 -1687 152 -68 380 -147 516 -181 49 -12 158 -37 175 -41 101 -20
186 -35 238 -40 34 -3 65 -8 68 -9 15 -10 227 -20 409 -20 188 0 341 8 430 21
144 21 295 48 345 61 33 8 67 16 75 18 109 22 388 117 549 187 121 53 308 148
353 179 14 11 29 19 33 19 25 0 384 257 494 354 121 106 294 279 366 366 21
25 41 47 44 50 4 3 45 55 91 115 332 436 547 915 654 1456 14 70 28 155 32
190 3 35 8 67 10 70 9 17 19 214 18 399 0 188 -6 331 -19 420 -3 19 -7 56 -10
81 -3 25 -7 54 -9 65 -2 10 -11 60 -21 109 -85 456 -276 915 -543 1305 -56 82
-194 265 -211 280 -3 3 -35 38 -70 78 -478 546 -1168 947 -1888 1097 -100 20
-248 43 -393 60 -56 7 -526 16 -532 10z m402 -879 c105 -8 167 -15 225 -26 28
-5 66 -12 85 -15 58 -10 221 -52 305 -80 383 -127 747 -350 1029 -629 405
-402 676 -934 751 -1473 3 -23 8 -57 10 -75 24 -174 24 -417 -1 -649 -5 -47
-43 -253 -58 -311 -34 -131 -68 -232 -116 -348 -17 -41 -38 -93 -47 -115 -9
-22 -20 -44 -24 -50 -4 -5 -26 -46 -49 -90 -186 -356 -516 -717 -870 -950 -68
-45 -71 -46 -181 -107 -276 -151 -595 -258 -879 -294 -25 -3 -51 -7 -57 -9
-48 -16 -360 -23 -513 -12 -250 18 -575 89 -735 161 -16 8 -41 17 -55 21 -42
12 -303 141 -366 181 -88 55 -167 107 -184 121 -283 222 -404 341 -571 563
-258 342 -437 770 -494 1180 -3 25 -8 56 -10 70 -11 71 -19 219 -18 335 1 211
18 351 78 630 1 6 8 30 15 55 7 25 14 50 15 55 15 67 112 311 176 437 80 159
238 392 360 533 266 305 656 580 1019 718 157 60 359 118 455 132 22 4 47 8
55 10 8 2 38 7 65 11 28 3 58 8 69 10 10 2 59 6 110 10 50 3 92 7 93 8 5 4
238 -2 313 -8z"/>
<path d="M3287 5843 c-1 0 -27 -4 -57 -8 -56 -6 -79 -10 -140 -20 -66 -11 -85
-15 -145 -30 -33 -9 -69 -17 -79 -20 -101 -24 -318 -111 -456 -182 -287 -149
-539 -359 -763 -634 -53 -65 -175 -255 -225 -349 -77 -144 -184 -422 -206
-536 -2 -10 -11 -55 -20 -99 -59 -291 -59 -656 -1 -925 9 -41 18 -84 20 -95 3
-11 7 -29 9 -40 6 -30 66 -217 76 -240 5 -11 27 -62 49 -113 153 -356 420
-692 746 -936 324 -243 689 -389 1125 -451 19 -3 90 -8 158 -11 l122 -7 0
2352 0 2353 -106 -4 c-58 -2 -106 -4 -107 -5z"/>
</g>
</svg>
